<?xml version="1.0" encoding="utf-8" standalone="no"?>
<!DOCTYPE svg PUBLIC "-//W3C//DTD SVG 1.1//EN"
  "http://www.w3.org/Graphics/SVG/1.1/DTD/svg11.dtd">
<svg xmlns:xlink="http://www.w3.org/1999/xlink" width="720pt" height="72pt" viewBox="0 0 720 72" xmlns="http://www.w3.org/2000/svg" version="1.1">
 <metadata>
  <rdf:RDF xmlns:dc="http://purl.org/dc/elements/1.1/" xmlns:cc="http://creativecommons.org/ns#" xmlns:rdf="http://www.w3.org/1999/02/22-rdf-syntax-ns#">
   <cc:Work>
    <dc:type rdf:resource="http://purl.org/dc/dcmitype/StillImage"/>
    <dc:date>2025-04-13T13:56:10.387330</dc:date>
    <dc:format>image/svg+xml</dc:format>
    <dc:creator>
     <cc:Agent>
      <dc:title>Matplotlib v3.9.2, https://matplotlib.org/</dc:title>
     </cc:Agent>
    </dc:creator>
   </cc:Work>
  </rdf:RDF>
 </metadata>
 <defs>
  <style type="text/css">*{stroke-linejoin: round; stroke-linecap: butt}</style>
 </defs>
 <g id="figure_1">
  <g id="patch_1">
   <path d="M 0 72 
L 720 72 
L 720 0 
L 0 0 
z
" style="fill: #ffffff"/>
  </g>
  <g id="axes_1">
   <g id="patch_2">
    <path d="M 90 64.08 
L 648 64.08 
L 648 8.64 
L 90 8.64 
z
" style="fill: #ffffff"/>
   </g>
   <g id="PolyCollection_1">
    <defs>
     <path id="mff98026191" d="M 115.363636 -35.61076 
L 115.363636 -35.66924 
L 120.487603 -35.683972 
L 125.61157 -35.704401 
L 130.735537 -35.732108 
L 135.859504 -35.769045 
L 140.983471 -35.817689 
L 146.107438 -35.881265 
L 151.231405 -35.964017 
L 156.355372 -36.071476 
L 161.479339 -36.210659 
L 166.603306 -36.390141 
L 171.727273 -36.619929 
L 176.85124 -36.911127 
L 181.975207 -37.275378 
L 187.099174 -37.724136 
L 192.22314 -38.267823 
L 197.347107 -38.914913 
L 202.471074 -39.671051 
L 207.595041 -40.538241 
L 212.719008 -41.514241 
L 217.842975 -42.59224 
L 222.966942 -43.760921 
L 228.090909 -45.004927 
L 233.214876 -46.305665 
L 238.338843 -47.642249 
L 243.46281 -48.992345 
L 248.586777 -50.332665 
L 253.710744 -51.639025 
L 258.834711 -52.886082 
L 263.958678 -54.0471 
L 269.082645 -55.094238 
L 274.206612 -55.999803 
L 279.330579 -56.738681 
L 284.454545 -57.291751 
L 289.578512 -57.649656 
L 294.702479 -57.816 
L 299.826446 -57.80898 
L 304.950413 -57.660678 
L 310.07438 -57.413721 
L 315.198347 -57.115651 
L 320.322314 -56.811889 
L 325.446281 -56.538633 
L 330.570248 -56.31711 
L 335.694215 -56.150425 
L 340.818182 -56.023745 
L 345.942149 -55.907885 
L 351.066116 -55.765598 
L 356.190083 -55.559321 
L 361.31405 -55.258727 
L 366.438017 -54.846542 
L 371.561983 -54.321462 
L 376.68595 -53.697735 
L 381.809917 -53.001734 
L 386.933884 -52.266539 
L 392.057851 -51.525882 
L 397.181818 -50.80879 
L 402.305785 -50.135895 
L 407.429752 -49.517863 
L 412.553719 -48.955815 
L 417.677686 -48.443254 
L 422.801653 -47.968845 
L 427.92562 -47.519407 
L 433.049587 -47.082675 
L 438.173554 -46.649479 
L 443.297521 -46.215192 
L 448.421488 -45.780292 
L 453.545455 -45.35002 
L 458.669421 -44.933169 
L 463.793388 -44.540196 
L 468.917355 -44.181001 
L 474.041322 -43.862794 
L 479.165289 -43.588495 
L 484.289256 -43.355973 
L 489.413223 -43.158244 
L 494.53719 -42.984531 
L 499.661157 -42.821874 
L 504.785124 -42.656943 
L 509.909091 -42.477651 
L 515.033058 -42.274335 
L 520.157025 -42.04036 
L 525.280992 -41.772178 
L 530.404959 -41.468978 
L 535.528926 -41.132119 
L 540.652893 -40.764565 
L 545.77686 -40.370449 
L 550.900826 -39.954858 
L 556.024793 -39.523815 
L 561.14876 -39.084348 
L 566.272727 -38.64451 
L 571.396694 -38.213211 
L 576.520661 -37.799785 
L 581.644628 -37.413312 
L 586.768595 -37.061786 
L 591.892562 -36.751323 
L 597.016529 -36.485558 
L 602.140496 -36.265384 
L 607.264463 -36.089077 
L 612.38843 -35.95275 
L 617.512397 -35.851042 
L 622.636364 -35.777874 
L 622.636364 -35.502126 
L 622.636364 -35.502126 
L 617.512397 -35.428958 
L 612.38843 -35.32725 
L 607.264463 -35.190923 
L 602.140496 -35.014616 
L 597.016529 -34.794442 
L 591.892562 -34.528677 
L 586.768595 -34.218214 
L 581.644628 -33.866688 
L 576.520661 -33.480215 
L 571.396694 -33.066789 
L 566.272727 -32.63549 
L 561.14876 -32.195652 
L 556.024793 -31.756185 
L 550.900826 -31.325142 
L 545.77686 -30.909551 
L 540.652893 -30.515435 
L 535.528926 -30.147881 
L 530.404959 -29.811022 
L 525.280992 -29.507822 
L 520.157025 -29.23964 
L 515.033058 -29.005665 
L 509.909091 -28.802349 
L 504.785124 -28.623057 
L 499.661157 -28.458126 
L 494.53719 -28.295469 
L 489.413223 -28.121756 
L 484.289256 -27.924027 
L 479.165289 -27.691505 
L 474.041322 -27.417206 
L 468.917355 -27.098999 
L 463.793388 -26.739804 
L 458.669421 -26.346831 
L 453.545455 -25.92998 
L 448.421488 -25.499708 
L 443.297521 -25.064808 
L 438.173554 -24.630521 
L 433.049587 -24.197325 
L 427.92562 -23.760593 
L 422.801653 -23.311155 
L 417.677686 -22.836746 
L 412.553719 -22.324185 
L 407.429752 -21.762137 
L 402.305785 -21.144105 
L 397.181818 -20.47121 
L 392.057851 -19.754118 
L 386.933884 -19.013461 
L 381.809917 -18.278266 
L 376.68595 -17.582265 
L 371.561983 -16.958538 
L 366.438017 -16.433458 
L 361.31405 -16.021273 
L 356.190083 -15.720679 
L 351.066116 -15.514402 
L 345.942149 -15.372115 
L 340.818182 -15.256255 
L 335.694215 -15.129575 
L 330.570248 -14.96289 
L 325.446281 -14.741367 
L 320.322314 -14.468111 
L 315.198347 -14.164349 
L 310.07438 -13.866279 
L 304.950413 -13.619322 
L 299.826446 -13.47102 
L 294.702479 -13.464 
L 289.578512 -13.630344 
L 284.454545 -13.988249 
L 279.330579 -14.541319 
L 274.206612 -15.280197 
L 269.082645 -16.185762 
L 263.958678 -17.2329 
L 258.834711 -18.393918 
L 253.710744 -19.640975 
L 248.586777 -20.947335 
L 243.46281 -22.287655 
L 238.338843 -23.637751 
L 233.214876 -24.974335 
L 228.090909 -26.275073 
L 222.966942 -27.519079 
L 217.842975 -28.68776 
L 212.719008 -29.765759 
L 207.595041 -30.741759 
L 202.471074 -31.608949 
L 197.347107 -32.365087 
L 192.22314 -33.012177 
L 187.099174 -33.555864 
L 181.975207 -34.004622 
L 176.85124 -34.368873 
L 171.727273 -34.660071 
L 166.603306 -34.889859 
L 161.479339 -35.069341 
L 156.355372 -35.208524 
L 151.231405 -35.315983 
L 146.107438 -35.398735 
L 140.983471 -35.462311 
L 135.859504 -35.510955 
L 130.735537 -35.547892 
L 125.61157 -35.575599 
L 120.487603 -35.596028 
L 115.363636 -35.61076 
z
" style="stroke: #3f3f3f; stroke-width: 1.25"/>
    </defs>
    <g clip-path="url(#p2435a96d27)">
     <use xlink:href="#mff98026191" x="0" y="72" style="fill: #3274a1; stroke: #3f3f3f; stroke-width: 1.25"/>
    </g>
   </g>
   <g id="matplotlib.axis_1">
    <g id="xtick_1">
     <g id="line2d_1">
      <defs>
       <path id="m68b6f254eb" d="M 0 0 
L 0 3.5 
" style="stroke: #000000; stroke-width: 0.8"/>
      </defs>
      <g>
       <use xlink:href="#m68b6f254eb" x="151.267777" y="64.08" style="stroke: #000000; stroke-width: 0.8"/>
      </g>
     </g>
     <g id="text_1">
      <!-- 50 -->
      <g transform="translate(144.905277 78.678438) scale(0.1 -0.1)">
       <defs>
        <path id="DejaVuSans-35" d="M 691 4666 
L 3169 4666 
L 3169 4134 
L 1269 4134 
L 1269 2991 
Q 1406 3038 1543 3061 
Q 1681 3084 1819 3084 
Q 2600 3084 3056 2656 
Q 3513 2228 3513 1497 
Q 3513 744 3044 326 
Q 2575 -91 1722 -91 
Q 1428 -91 1123 -41 
Q 819 9 494 109 
L 494 744 
Q 775 591 1075 516 
Q 1375 441 1709 441 
Q 2250 441 2565 725 
Q 2881 1009 2881 1497 
Q 2881 1984 2565 2268 
Q 2250 2553 1709 2553 
Q 1456 2553 1204 2497 
Q 953 2441 691 2322 
L 691 4666 
z
" transform="scale(0.015625)"/>
        <path id="DejaVuSans-30" d="M 2034 4250 
Q 1547 4250 1301 3770 
Q 1056 3291 1056 2328 
Q 1056 1369 1301 889 
Q 1547 409 2034 409 
Q 2525 409 2770 889 
Q 3016 1369 3016 2328 
Q 3016 3291 2770 3770 
Q 2525 4250 2034 4250 
z
M 2034 4750 
Q 2819 4750 3233 4129 
Q 3647 3509 3647 2328 
Q 3647 1150 3233 529 
Q 2819 -91 2034 -91 
Q 1250 -91 836 529 
Q 422 1150 422 2328 
Q 422 3509 836 4129 
Q 1250 4750 2034 4750 
z
" transform="scale(0.015625)"/>
       </defs>
       <use xlink:href="#DejaVuSans-35"/>
       <use xlink:href="#DejaVuSans-30" x="63.623047"/>
      </g>
     </g>
    </g>
    <g id="xtick_2">
     <g id="line2d_2">
      <g>
       <use xlink:href="#m68b6f254eb" x="221.960057" y="64.08" style="stroke: #000000; stroke-width: 0.8"/>
      </g>
     </g>
     <g id="text_2">
      <!-- 75 -->
      <g transform="translate(215.597557 78.678438) scale(0.1 -0.1)">
       <defs>
        <path id="DejaVuSans-37" d="M 525 4666 
L 3525 4666 
L 3525 4397 
L 1831 0 
L 1172 0 
L 2766 4134 
L 525 4134 
L 525 4666 
z
" transform="scale(0.015625)"/>
       </defs>
       <use xlink:href="#DejaVuSans-37"/>
       <use xlink:href="#DejaVuSans-35" x="63.623047"/>
      </g>
     </g>
    </g>
    <g id="xtick_3">
     <g id="line2d_3">
      <g>
       <use xlink:href="#m68b6f254eb" x="292.652337" y="64.08" style="stroke: #000000; stroke-width: 0.8"/>
      </g>
     </g>
     <g id="text_3">
      <!-- 100 -->
      <g transform="translate(283.108587 78.678438) scale(0.1 -0.1)">
       <defs>
        <path id="DejaVuSans-31" d="M 794 531 
L 1825 531 
L 1825 4091 
L 703 3866 
L 703 4441 
L 1819 4666 
L 2450 4666 
L 2450 531 
L 3481 531 
L 3481 0 
L 794 0 
L 794 531 
z
" transform="scale(0.015625)"/>
       </defs>
       <use xlink:href="#DejaVuSans-31"/>
       <use xlink:href="#DejaVuSans-30" x="63.623047"/>
       <use xlink:href="#DejaVuSans-30" x="127.246094"/>
      </g>
     </g>
    </g>
    <g id="xtick_4">
     <g id="line2d_4">
      <g>
       <use xlink:href="#m68b6f254eb" x="363.344618" y="64.08" style="stroke: #000000; stroke-width: 0.8"/>
      </g>
     </g>
     <g id="text_4">
      <!-- 125 -->
      <g transform="translate(353.800868 78.678438) scale(0.1 -0.1)">
       <defs>
        <path id="DejaVuSans-32" d="M 1228 531 
L 3431 531 
L 3431 0 
L 469 0 
L 469 531 
Q 828 903 1448 1529 
Q 2069 2156 2228 2338 
Q 2531 2678 2651 2914 
Q 2772 3150 2772 3378 
Q 2772 3750 2511 3984 
Q 2250 4219 1831 4219 
Q 1534 4219 1204 4116 
Q 875 4013 500 3803 
L 500 4441 
Q 881 4594 1212 4672 
Q 1544 4750 1819 4750 
Q 2544 4750 2975 4387 
Q 3406 4025 3406 3419 
Q 3406 3131 3298 2873 
Q 3191 2616 2906 2266 
Q 2828 2175 2409 1742 
Q 1991 1309 1228 531 
z
" transform="scale(0.015625)"/>
       </defs>
       <use xlink:href="#DejaVuSans-31"/>
       <use xlink:href="#DejaVuSans-32" x="63.623047"/>
       <use xlink:href="#DejaVuSans-35" x="127.246094"/>
      </g>
     </g>
    </g>
    <g id="xtick_5">
     <g id="line2d_5">
      <g>
       <use xlink:href="#m68b6f254eb" x="434.036898" y="64.08" style="stroke: #000000; stroke-width: 0.8"/>
      </g>
     </g>
     <g id="text_5">
      <!-- 150 -->
      <g transform="translate(424.493148 78.678438) scale(0.1 -0.1)">
       <use xlink:href="#DejaVuSans-31"/>
       <use xlink:href="#DejaVuSans-35" x="63.623047"/>
       <use xlink:href="#DejaVuSans-30" x="127.246094"/>
      </g>
     </g>
    </g>
    <g id="xtick_6">
     <g id="line2d_6">
      <g>
       <use xlink:href="#m68b6f254eb" x="504.729178" y="64.08" style="stroke: #000000; stroke-width: 0.8"/>
      </g>
     </g>
     <g id="text_6">
      <!-- 175 -->
      <g transform="translate(495.185428 78.678438) scale(0.1 -0.1)">
       <use xlink:href="#DejaVuSans-31"/>
       <use xlink:href="#DejaVuSans-37" x="63.623047"/>
       <use xlink:href="#DejaVuSans-35" x="127.246094"/>
      </g>
     </g>
    </g>
    <g id="xtick_7">
     <g id="line2d_7">
      <g>
       <use xlink:href="#m68b6f254eb" x="575.421459" y="64.08" style="stroke: #000000; stroke-width: 0.8"/>
      </g>
     </g>
     <g id="text_7">
      <!-- 200 -->
      <g transform="translate(565.877709 78.678438) scale(0.1 -0.1)">
       <use xlink:href="#DejaVuSans-32"/>
       <use xlink:href="#DejaVuSans-30" x="63.623047"/>
       <use xlink:href="#DejaVuSans-30" x="127.246094"/>
      </g>
     </g>
    </g>
    <g id="xtick_8">
     <g id="line2d_8">
      <g>
       <use xlink:href="#m68b6f254eb" x="646.113739" y="64.08" style="stroke: #000000; stroke-width: 0.8"/>
      </g>
     </g>
     <g id="text_8">
      <!-- 225 -->
      <g transform="translate(636.569989 78.678438) scale(0.1 -0.1)">
       <use xlink:href="#DejaVuSans-32"/>
       <use xlink:href="#DejaVuSans-32" x="63.623047"/>
       <use xlink:href="#DejaVuSans-35" x="127.246094"/>
      </g>
     </g>
    </g>
    <g id="text_9">
     <!-- Glucose -->
     <g transform="translate(349.078125 92.356562) scale(0.1 -0.1)">
      <defs>
       <path id="DejaVuSans-47" d="M 3809 666 
L 3809 1919 
L 2778 1919 
L 2778 2438 
L 4434 2438 
L 4434 434 
Q 4069 175 3628 42 
Q 3188 -91 2688 -91 
Q 1594 -91 976 548 
Q 359 1188 359 2328 
Q 359 3472 976 4111 
Q 1594 4750 2688 4750 
Q 3144 4750 3555 4637 
Q 3966 4525 4313 4306 
L 4313 3634 
Q 3963 3931 3569 4081 
Q 3175 4231 2741 4231 
Q 1884 4231 1454 3753 
Q 1025 3275 1025 2328 
Q 1025 1384 1454 906 
Q 1884 428 2741 428 
Q 3075 428 3337 486 
Q 3600 544 3809 666 
z
" transform="scale(0.015625)"/>
       <path id="DejaVuSans-6c" d="M 603 4863 
L 1178 4863 
L 1178 0 
L 603 0 
L 603 4863 
z
" transform="scale(0.015625)"/>
       <path id="DejaVuSans-75" d="M 544 1381 
L 544 3500 
L 1119 3500 
L 1119 1403 
Q 1119 906 1312 657 
Q 1506 409 1894 409 
Q 2359 409 2629 706 
Q 2900 1003 2900 1516 
L 2900 3500 
L 3475 3500 
L 3475 0 
L 2900 0 
L 2900 538 
Q 2691 219 2414 64 
Q 2138 -91 1772 -91 
Q 1169 -91 856 284 
Q 544 659 544 1381 
z
M 1991 3584 
L 1991 3584 
z
" transform="scale(0.015625)"/>
       <path id="DejaVuSans-63" d="M 3122 3366 
L 3122 2828 
Q 2878 2963 2633 3030 
Q 2388 3097 2138 3097 
Q 1578 3097 1268 2742 
Q 959 2388 959 1747 
Q 959 1106 1268 751 
Q 1578 397 2138 397 
Q 2388 397 2633 464 
Q 2878 531 3122 666 
L 3122 134 
Q 2881 22 2623 -34 
Q 2366 -91 2075 -91 
Q 1284 -91 818 406 
Q 353 903 353 1747 
Q 353 2603 823 3093 
Q 1294 3584 2113 3584 
Q 2378 3584 2631 3529 
Q 2884 3475 3122 3366 
z
" transform="scale(0.015625)"/>
       <path id="DejaVuSans-6f" d="M 1959 3097 
Q 1497 3097 1228 2736 
Q 959 2375 959 1747 
Q 959 1119 1226 758 
Q 1494 397 1959 397 
Q 2419 397 2687 759 
Q 2956 1122 2956 1747 
Q 2956 2369 2687 2733 
Q 2419 3097 1959 3097 
z
M 1959 3584 
Q 2709 3584 3137 3096 
Q 3566 2609 3566 1747 
Q 3566 888 3137 398 
Q 2709 -91 1959 -91 
Q 1206 -91 779 398 
Q 353 888 353 1747 
Q 353 2609 779 3096 
Q 1206 3584 1959 3584 
z
" transform="scale(0.015625)"/>
       <path id="DejaVuSans-73" d="M 2834 3397 
L 2834 2853 
Q 2591 2978 2328 3040 
Q 2066 3103 1784 3103 
Q 1356 3103 1142 2972 
Q 928 2841 928 2578 
Q 928 2378 1081 2264 
Q 1234 2150 1697 2047 
L 1894 2003 
Q 2506 1872 2764 1633 
Q 3022 1394 3022 966 
Q 3022 478 2636 193 
Q 2250 -91 1575 -91 
Q 1294 -91 989 -36 
Q 684 19 347 128 
L 347 722 
Q 666 556 975 473 
Q 1284 391 1588 391 
Q 1994 391 2212 530 
Q 2431 669 2431 922 
Q 2431 1156 2273 1281 
Q 2116 1406 1581 1522 
L 1381 1569 
Q 847 1681 609 1914 
Q 372 2147 372 2553 
Q 372 3047 722 3315 
Q 1072 3584 1716 3584 
Q 2034 3584 2315 3537 
Q 2597 3491 2834 3397 
z
" transform="scale(0.015625)"/>
       <path id="DejaVuSans-65" d="M 3597 1894 
L 3597 1613 
L 953 1613 
Q 991 1019 1311 708 
Q 1631 397 2203 397 
Q 2534 397 2845 478 
Q 3156 559 3463 722 
L 3463 178 
Q 3153 47 2828 -22 
Q 2503 -91 2169 -91 
Q 1331 -91 842 396 
Q 353 884 353 1716 
Q 353 2575 817 3079 
Q 1281 3584 2069 3584 
Q 2775 3584 3186 3129 
Q 3597 2675 3597 1894 
z
M 3022 2063 
Q 3016 2534 2758 2815 
Q 2500 3097 2075 3097 
Q 1594 3097 1305 2825 
Q 1016 2553 972 2059 
L 3022 2063 
z
" transform="scale(0.015625)"/>
      </defs>
      <use xlink:href="#DejaVuSans-47"/>
      <use xlink:href="#DejaVuSans-6c" x="77.490234"/>
      <use xlink:href="#DejaVuSans-75" x="105.273438"/>
      <use xlink:href="#DejaVuSans-63" x="168.652344"/>
      <use xlink:href="#DejaVuSans-6f" x="223.632812"/>
      <use xlink:href="#DejaVuSans-73" x="284.814453"/>
      <use xlink:href="#DejaVuSans-65" x="336.914062"/>
     </g>
    </g>
   </g>
   <g id="matplotlib.axis_2">
    <g id="ytick_1">
     <g id="line2d_9">
      <defs>
       <path id="me8aa646e71" d="M 0 0 
L -3.5 0 
" style="stroke: #000000; stroke-width: 0.8"/>
      </defs>
      <g>
       <use xlink:href="#me8aa646e71" x="90" y="36.36" style="stroke: #000000; stroke-width: 0.8"/>
      </g>
     </g>
    </g>
   </g>
   <g id="line2d_10">
    <path d="M 168.233924 36.36 
L 569.766076 36.36 
" clip-path="url(#p2435a96d27)" style="fill: none; stroke: #3f3f3f; stroke-width: 1.875; stroke-linecap: square"/>
   </g>
   <g id="line2d_11">
    <path d="M 289.824646 36.36 
L 414.243059 36.36 
" clip-path="url(#p2435a96d27)" style="fill: none; stroke: #3f3f3f; stroke-width: 5.625; stroke-linecap: square"/>
   </g>
   <g id="line2d_12">
    <path d="M 346.37847 36.36 
" clip-path="url(#p2435a96d27)" style="fill: none; stroke: #3f3f3f; stroke-width: 1.5; stroke-linecap: square"/>
    <defs>
     <path id="mecba3db10f" d="M 0 2.34375 
L 0 -2.34375 
" style="stroke: #ffffff; stroke-width: 1.125"/>
    </defs>
    <g clip-path="url(#p2435a96d27)">
     <use xlink:href="#mecba3db10f" x="346.37847" y="36.36" style="fill: #ffffff; stroke: #ffffff; stroke-width: 1.125"/>
    </g>
   </g>
   <g id="patch_3">
    <path d="M 90 64.08 
L 90 8.64 
" style="fill: none; stroke: #000000; stroke-width: 0.8; stroke-linejoin: miter; stroke-linecap: square"/>
   </g>
   <g id="patch_4">
    <path d="M 648 64.08 
L 648 8.64 
" style="fill: none; stroke: #000000; stroke-width: 0.8; stroke-linejoin: miter; stroke-linecap: square"/>
   </g>
   <g id="patch_5">
    <path d="M 90 64.08 
L 648 64.08 
" style="fill: none; stroke: #000000; stroke-width: 0.8; stroke-linejoin: miter; stroke-linecap: square"/>
   </g>
   <g id="patch_6">
    <path d="M 90 8.64 
L 648 8.64 
" style="fill: none; stroke: #000000; stroke-width: 0.8; stroke-linejoin: miter; stroke-linecap: square"/>
   </g>
  </g>
 </g>
 <defs>
  <clipPath id="p2435a96d27">
   <rect x="90" y="8.64" width="558" height="55.44"/>
  </clipPath>
 </defs>
</svg>
